<svg width="208" height="39" viewBox="0 0 208 39" fill="none" xmlns="http://www.w3.org/2000/svg">
<g clip-path="url(#clip0_4909_2186)">
<path d="M25.91 17.6992C24.1554 16.9995 21.8841 16.289 19.0951 15.5676C16.6657 15.0266 14.8775 14.4844 13.7316 13.9434C12.5846 13.4012 12.0105 12.5897 12.0105 11.5065C12.0105 10.6047 12.3701 9.89421 13.0904 9.37489C13.8096 8.85666 14.845 8.59591 16.1935 8.59591C17.7683 8.59591 19.0377 8.98051 20.006 9.74645C20.9721 10.5146 21.5462 11.5521 21.726 12.8602H32.387C31.9819 8.98051 30.419 5.86678 27.6971 3.52007C24.9764 1.17336 21.2548 0 16.5314 0C13.3373 0 10.5819 0.519318 8.26625 1.55687C5.94949 2.59551 4.19486 4.00462 3.00345 5.78638C1.81095 7.56923 1.21524 9.5422 1.21524 11.7086C1.21524 14.2802 1.86727 16.3227 3.17241 17.8339C4.47647 19.3462 6.02856 20.4511 7.82868 21.1508C9.62771 21.8505 11.8773 22.5165 14.5764 23.1477C17.0946 23.78 18.9175 24.3558 20.0418 24.873C21.1649 25.3923 21.7282 26.193 21.7282 27.2762C21.7282 28.179 21.3339 28.9123 20.5476 29.4762C19.7602 30.0412 18.6467 30.3225 17.2073 30.3225C15.6324 30.3225 14.3056 29.9162 13.2269 29.1046C12.1481 28.2931 11.5405 27.2327 11.4051 25.9235H0C0.179795 28.3604 1.0127 30.5594 2.49656 32.5226C3.98149 34.4847 6.00581 36.0318 8.56952 37.1584C11.1332 38.2872 14.0576 38.8511 17.3416 38.8511C20.4003 38.8511 23.0874 38.3535 25.4053 37.3616C27.7221 36.3697 29.4983 35.0051 30.7352 33.2668C31.9722 31.5307 32.5906 29.5555 32.5906 27.3446C32.5451 24.7285 31.8584 22.6414 30.5327 21.0845C29.2048 19.5255 27.6646 18.3989 25.91 17.6992Z" fill="#1C6C69"/>
<path d="M52.5867 38.3078H43.8504L33.5967 0.539917H45.1328L47.3673 11.8519L50.4649 27.5466L52.5867 38.3078Z" fill="#1C6C69"/>
<path d="M66.0022 0.539917L62.676 13.8075L58.4086 30.8386L56.5381 38.3078H52.5869L50.4651 27.5466L56.8077 0.539917H66.0022Z" fill="#54C8D4"/>
<path d="M78.0301 38.3078H68.6158L62.676 13.8075L66.0022 0.539917H69.0187L72.4413 14.8918L75.4296 27.4108L78.0301 38.3078Z" fill="#FC702A"/>
<path d="M91.5549 0.539917L81.3662 38.3078H78.0302L75.4297 27.4108L80.6914 0.539917H91.5549Z" fill="#FEBF00"/>
<path d="M120.577 2.30108C117.742 0.767027 114.504 0 110.86 0C107.125 0 103.82 0.789842 100.941 2.36844C98.0621 3.94812 95.8233 6.20466 94.2279 9.13696C92.6303 12.0703 91.832 15.4992 91.832 19.4245C91.832 23.3498 92.6411 26.7797 94.2614 29.712C95.8807 32.6454 98.1292 34.9019 101.009 36.4805C103.887 38.0602 107.172 38.8489 110.86 38.8489C113.919 38.8489 116.685 38.2851 119.16 37.1562C121.633 36.0296 123.692 34.4717 125.334 32.4867C126.976 30.5018 128.111 28.2681 128.741 25.7856H116.461C115.335 28.2225 113.334 29.4404 110.455 29.4404C108.521 29.4404 106.889 28.8211 105.563 27.5793C104.236 26.3386 103.482 24.5449 103.302 22.1981H129.415C129.55 21.0259 129.617 19.8971 129.617 18.8139C129.617 15.0233 128.818 11.7075 127.221 8.86426C125.625 6.02322 123.41 3.83513 120.577 2.30108ZM103.37 15.7697C103.684 13.6946 104.505 12.0921 105.833 10.9644C107.16 9.83772 108.79 9.27277 110.726 9.27277C112.75 9.27277 114.436 9.85944 115.786 11.0328C117.136 12.2072 117.81 13.7858 117.81 15.7708H103.37V15.7697Z" fill="#1C6C69"/>
<path d="M161.27 2.30108C158.436 0.767027 155.197 0 151.553 0C147.819 0 144.513 0.789842 141.634 2.36844C138.755 3.94812 136.517 6.20466 134.921 9.13696C133.324 12.0703 132.525 15.4992 132.525 19.4245C132.525 23.3498 133.334 26.7797 134.955 29.712C136.574 32.6454 138.823 34.9019 141.703 36.4805C144.58 38.0602 147.865 38.8489 151.553 38.8489C154.612 38.8489 157.378 38.2851 159.853 37.1562C162.326 36.0296 164.385 34.4717 166.027 32.4867C167.669 30.5018 168.804 28.2681 169.434 25.7856H157.154C156.029 28.2225 154.027 29.4404 151.148 29.4404C149.214 29.4404 147.583 28.8211 146.256 27.5793C144.929 26.3386 144.175 24.5449 143.995 22.1981H170.108C170.243 21.0259 170.311 19.8971 170.311 18.8139C170.311 15.0233 169.511 11.7075 167.915 8.86426C166.319 6.02322 164.103 3.83513 161.27 2.30108ZM144.064 15.7697C144.378 13.6946 145.199 12.0921 146.527 10.9644C147.853 9.83772 149.484 9.27277 151.419 9.27277C153.443 9.27277 155.13 9.85944 156.479 11.0328C157.829 12.2072 158.504 13.7858 158.504 15.7708H144.064V15.7697Z" fill="#1C6C69"/>
<path d="M205.513 9.54987C203.887 6.70014 201.592 4.48489 198.623 2.90629C195.654 1.3277 192.188 0.53894 188.219 0.53894H174.112V38.3069H188.219C192.148 38.3069 195.611 37.5181 198.597 35.9395C201.583 34.3609 203.887 32.1381 205.513 29.2698C207.143 26.4016 207.956 23.1173 207.956 19.4256C207.956 15.6937 207.143 12.4007 205.513 9.54987ZM187.628 29.4665H184.157V9.26957H187.628C190.838 9.26957 193.355 10.1637 195.108 11.9183C196.861 13.6762 197.749 16.2021 197.749 19.4256C197.749 22.6436 196.862 25.1479 195.113 26.8666C193.36 28.5941 190.842 29.4665 187.628 29.4665Z" fill="#1C6C69"/>
</g>
<defs>
<clipPath id="clip0_4909_2186">
<rect width="207.956" height="38.8489" fill="white"/>
</clipPath>
</defs>
</svg>
