<svg width="165" height="31" viewBox="0 0 165 31" fill="none" xmlns="http://www.w3.org/2000/svg">
<g clip-path="url(#clip0_4909_2890)">
<path d="M20.4933 14.1413C19.1055 13.5903 17.3091 13.0307 15.1031 12.4625C13.1816 12.0364 11.7672 11.6094 10.8609 11.1833C9.95367 10.7563 9.49963 10.1172 9.49963 9.26409C9.49963 8.55391 9.78405 7.99431 10.3537 7.58531C10.9226 7.17716 11.7415 6.97181 12.8081 6.97181C14.0537 6.97181 15.0577 7.27471 15.8236 7.87794C16.5877 8.48289 17.0418 9.30003 17.184 10.3302H25.6162C25.2958 7.27471 24.0596 4.82241 21.9068 2.97421C19.7548 1.12601 16.8113 0.201904 13.0754 0.201904C10.5491 0.201904 8.36968 0.610905 6.53812 1.42805C4.7057 2.24605 3.31789 3.35583 2.37555 4.7591C1.43235 6.16322 0.961186 7.71708 0.961186 9.42324C0.961186 11.4486 1.4769 13.0572 2.50919 14.2474C3.54062 15.4385 4.76823 16.3087 6.19202 16.8597C7.61495 17.4107 9.39426 17.9353 11.5291 18.4324C13.5208 18.9304 14.9626 19.3839 15.8519 19.7912C16.7402 20.2002 17.1857 20.8308 17.1857 21.6839C17.1857 22.3949 16.8739 22.9725 16.2519 23.4165C15.6291 23.8615 14.7485 24.0831 13.6099 24.0831C12.3643 24.0831 11.3149 23.7631 10.4617 23.1239C9.60843 22.4847 9.12784 21.6496 9.02075 20.6186H0C0.142207 22.5378 0.800988 24.2696 1.97463 25.8158C3.14912 27.3611 4.75024 28.5795 6.77799 29.4668C8.80573 30.3559 11.1187 30.8 13.7162 30.8C16.1354 30.8 18.2608 30.4081 20.0941 29.6269C21.9265 28.8456 23.3315 27.771 24.3098 26.4019C25.2881 25.0346 25.7772 23.479 25.7772 21.7378C25.7413 19.6774 25.1981 18.0337 24.1496 16.8075C23.0993 15.5796 21.8811 14.6923 20.4933 14.1413Z" fill="#F5F5F5"/>
<path d="M41.5933 30.3722H34.6834L26.5732 0.627197H35.6977L37.465 9.53622L39.915 21.8969L41.5933 30.3722Z" fill="#1C6C69"/>
<path d="M52.204 0.627197L49.5732 11.0764L46.1979 24.4896L44.7184 30.3722H41.5933L39.915 21.8969L44.9317 0.627197H52.204Z" fill="#54C8D4"/>
<path d="M61.7172 30.3722H54.271L49.573 11.0764L52.2038 0.627197H54.5897L57.2968 11.9303L59.6603 21.79L61.7172 30.3722Z" fill="#FC702A"/>
<path d="M72.4145 0.627197L64.3558 30.3722H61.7173L59.6604 21.79L63.8221 0.627197H72.4145Z" fill="#FEBF00"/>
<path d="M95.369 2.01417C93.1271 0.805993 90.5656 0.201904 87.6838 0.201904C84.73 0.201904 82.1154 0.823962 79.8384 2.06722C77.5614 3.31134 75.7906 5.08852 74.5287 7.39792C73.2652 9.70818 72.6338 12.4086 72.6338 15.5001C72.6338 18.5915 73.2737 21.2928 74.5553 23.6022C75.836 25.9125 77.6145 27.6897 79.8924 28.9329C82.1685 30.177 84.7668 30.7982 87.6838 30.7982C90.103 30.7982 92.291 30.3542 94.2485 29.4651C96.2043 28.5778 97.8328 27.3508 99.1315 25.7875C100.43 24.2243 101.328 22.4651 101.827 20.5099H92.1136C91.2236 22.4291 89.6404 23.3883 87.3634 23.3883C85.8334 23.3883 84.5432 22.9006 83.4938 21.9226C82.4444 20.9454 81.8482 19.5327 81.7059 17.6845H102.359C102.467 16.7613 102.52 15.8723 102.52 15.0192C102.52 12.0338 101.887 9.42239 100.625 7.18315C99.3619 4.94563 97.6101 3.22235 95.369 2.01417ZM81.7599 12.6217C82.0083 10.9874 82.6577 9.72529 83.708 8.83712C84.7574 7.94981 86.0467 7.50488 87.5776 7.50488C89.1787 7.50488 90.5125 7.96693 91.5799 8.89103C92.6474 9.81599 93.1811 11.0592 93.1811 12.6225H81.7599V12.6217Z" fill="#F5F5F5"/>
<path d="M127.555 2.01417C125.314 0.805993 122.752 0.201904 119.87 0.201904C116.916 0.201904 114.301 0.823962 112.024 2.06722C109.747 3.31134 107.977 5.08852 106.715 7.39792C105.451 9.70818 104.82 12.4086 104.82 15.5001C104.82 18.5915 105.46 21.2928 106.741 23.6022C108.022 25.9125 109.801 27.6897 112.078 28.9329C114.355 30.177 116.953 30.7982 119.87 30.7982C122.289 30.7982 124.477 30.3542 126.435 29.4651C128.39 28.5778 130.019 27.3508 131.318 25.7875C132.616 24.2243 133.514 22.4651 134.013 20.5099H124.3C123.41 22.4291 121.826 23.3883 119.549 23.3883C118.019 23.3883 116.729 22.9006 115.68 21.9226C114.63 20.9454 114.034 19.5327 113.892 17.6845H134.545C134.653 16.7613 134.706 15.8723 134.706 15.0192C134.706 12.0338 134.073 9.42239 132.811 7.18315C131.549 4.94563 129.796 3.22235 127.555 2.01417ZM113.946 12.6217C114.194 10.9874 114.844 9.72529 115.894 8.83712C116.943 7.94981 118.233 7.50488 119.764 7.50488C121.365 7.50488 122.699 7.96693 123.766 8.89103C124.833 9.81599 125.367 11.0592 125.367 12.6225H113.946V12.6217Z" fill="#F5F5F5"/>
<path d="M162.548 7.72298C161.262 5.47861 159.447 3.73394 157.099 2.49068C154.751 1.24742 152.009 0.626221 148.87 0.626221H137.712V30.3712H148.87C151.978 30.3712 154.716 29.75 157.078 28.5067C159.44 27.2635 161.262 25.5128 162.548 23.2539C163.837 20.995 164.481 18.4083 164.481 15.5008C164.481 12.5617 163.837 9.96821 162.548 7.72298ZM148.403 23.4088H145.657V7.50222H148.403C150.941 7.50222 152.932 8.20642 154.319 9.5883C155.705 10.9727 156.408 12.9621 156.408 15.5008C156.408 18.0353 155.706 20.0075 154.322 21.3612C152.936 22.7217 150.945 23.4088 148.403 23.4088Z" fill="#F5F5F5"/>
</g>
<defs>
<clipPath id="clip0_4909_2890">
<rect width="164.481" height="30.5963" fill="white" transform="translate(0 0.201904)"/>
</clipPath>
</defs>
</svg>
